<svg width="17" height="16" viewBox="0 0 17 16" fill="none" xmlns="http://www.w3.org/2000/svg">
<path d="M17 15.25V5.75C17 5.6837 16.9737 5.62011 16.9268 5.57322C16.8799 5.52634 16.8163 5.5 16.75 5.5C16.6837 5.5 16.6201 5.52634 16.5732 5.57322C16.5263 5.62011 16.5 5.6837 16.5 5.75V15.25C16.5 15.3163 16.4737 15.3799 16.4268 15.4268C16.3799 15.4737 16.3163 15.5 16.25 15.5H0.75C0.683696 15.5 0.620107 15.4737 0.573223 15.4268C0.526339 15.3799 0.5 15.3163 0.5 15.25V5.75C0.5 5.6837 0.473661 5.62011 0.426777 5.57322C0.379893 5.52634 0.316304 5.5 0.25 5.5C0.183696 5.5 0.120107 5.52634 0.0732233 5.57322C0.0263392 5.62011 0 5.6837 0 5.75L0 15.25C0 15.6635 0.3365 16 0.75 16H16.25C16.6635 16 17 15.6635 17 15.25Z" fill="black"/>
<path d="M2.25 11.5C2.1837 11.5 2.12011 11.5263 2.07322 11.5732C2.02634 11.6201 2 11.6837 2 11.75C2 11.8163 2.02634 11.8799 2.07322 11.9268C2.12011 11.9737 2.1837 12 2.25 12H3V13.75C3 13.8163 3.02634 13.8799 3.07322 13.9268C3.12011 13.9737 3.1837 14 3.25 14C3.3163 14 3.37989 13.9737 3.42678 13.9268C3.47366 13.8799 3.5 13.8163 3.5 13.75V12H6.5V13.75C6.5 13.8163 6.52634 13.8799 6.57322 13.9268C6.62011 13.9737 6.6837 14 6.75 14C6.8163 14 6.87989 13.9737 6.92678 13.9268C6.97366 13.8799 7 13.8163 7 13.75V12H10V13.75C10 13.8163 10.0263 13.8799 10.0732 13.9268C10.1201 13.9737 10.1837 14 10.25 14C10.3163 14 10.3799 13.9737 10.4268 13.9268C10.4737 13.8799 10.5 13.8163 10.5 13.75V12H13.5V13.75C13.5 13.8163 13.5263 13.8799 13.5732 13.9268C13.6201 13.9737 13.6837 14 13.75 14C13.8163 14 13.8799 13.9737 13.9268 13.9268C13.9737 13.8799 14 13.8163 14 13.75V12H14.75C14.8163 12 14.8799 11.9737 14.9268 11.9268C14.9737 11.8799 15 11.8163 15 11.75C15 11.6837 14.9737 11.6201 14.9268 11.5732C14.8799 11.5263 14.8163 11.5 14.75 11.5H14V9H14.75C14.8163 9 14.8799 8.97366 14.9268 8.92678C14.9737 8.87989 15 8.8163 15 8.75C15 8.6837 14.9737 8.62011 14.9268 8.57322C14.8799 8.52634 14.8163 8.5 14.75 8.5H14V6.25C14 6.1837 13.9737 6.12011 13.9268 6.07322C13.8799 6.02634 13.8163 6 13.75 6C13.6837 6 13.6201 6.02634 13.5732 6.07322C13.5263 6.12011 13.5 6.1837 13.5 6.25V8.5H10.5V6.25C10.5 6.1837 10.4737 6.12011 10.4268 6.07322C10.3799 6.02634 10.3163 6 10.25 6C10.1837 6 10.1201 6.02634 10.0732 6.07322C10.0263 6.12011 10 6.1837 10 6.25V8.5H7V6.25C7 6.1837 6.97366 6.12011 6.92678 6.07322C6.87989 6.02634 6.8163 6 6.75 6C6.6837 6 6.62011 6.02634 6.57322 6.07322C6.52634 6.12011 6.5 6.1837 6.5 6.25V8.5H3.5V6.25C3.5 6.1837 3.47366 6.12011 3.42678 6.07322C3.37989 6.02634 3.3163 6 3.25 6C3.1837 6 3.12011 6.02634 3.07322 6.07322C3.02634 6.12011 3 6.1837 3 6.25V8.5H2.25C2.1837 8.5 2.12011 8.52634 2.07322 8.57322C2.02634 8.62011 2 8.6837 2 8.75C2 8.8163 2.02634 8.87989 2.07322 8.92678C2.12011 8.97366 2.1837 9 2.25 9H3V11.5H2.25ZM13.5 9V11.5H10.5V9H13.5ZM10 9V11.5H7V9H10ZM3.5 9H6.5V11.5H3.5V9Z" fill="black"/>
<path d="M14.25 1.5H16.375C16.4185 1.5 16.5 1.5 16.5 1.75V4H0.5V1.75C0.5 1.6837 0.526339 1.62011 0.573223 1.57322C0.620107 1.52634 0.683696 1.5 0.75 1.5H2.75C2.8163 1.5 2.87989 1.47366 2.92678 1.42678C2.97366 1.37989 3 1.3163 3 1.25C3 1.1837 2.97366 1.12011 2.92678 1.07322C2.87989 1.02634 2.8163 1 2.75 1H0.75C0.3365 1 0 1.3365 0 1.75V4.25C0 4.3163 0.0263392 4.37989 0.0732233 4.42678C0.120107 4.47366 0.183696 4.5 0.25 4.5H16.75C16.8163 4.5 16.8799 4.47366 16.9268 4.42678C16.9737 4.37989 17 4.3163 17 4.25V1.75C17 1.197 16.677 1 16.375 1H14.25C14.1837 1 14.1201 1.02634 14.0732 1.07322C14.0263 1.12011 14 1.1837 14 1.25C14 1.3163 14.0263 1.37989 14.0732 1.42678C14.1201 1.47366 14.1837 1.5 14.25 1.5Z" fill="black"/>
<path d="M11.25 1.5C11.3163 1.5 11.3799 1.47366 11.4268 1.42678C11.4737 1.37989 11.5 1.3163 11.5 1.25C11.5 1.1837 11.4737 1.12011 11.4268 1.07322C11.3799 1.02634 11.3163 1 11.25 1H5.75C5.6837 1 5.62011 1.02634 5.57322 1.07322C5.52634 1.12011 5.5 1.1837 5.5 1.25C5.5 1.3163 5.52634 1.37989 5.57322 1.42678C5.62011 1.47366 5.6837 1.5 5.75 1.5H11.25Z" fill="black"/>
<path d="M4.5 2.25V0.25C4.5 0.183696 4.47366 0.120107 4.42678 0.0732233C4.37989 0.0263392 4.3163 0 4.25 0C4.1837 0 4.12011 0.0263392 4.07322 0.0732233C4.02634 0.120107 4 0.183696 4 0.25V2.25C4 2.3163 4.02634 2.37989 4.07322 2.42678C4.12011 2.47366 4.1837 2.5 4.25 2.5C4.3163 2.5 4.37989 2.47366 4.42678 2.42678C4.47366 2.37989 4.5 2.3163 4.5 2.25Z" fill="black"/>
<path d="M12.75 2.5C12.8163 2.5 12.8799 2.47366 12.9268 2.42678C12.9737 2.37989 13 2.3163 13 2.25V0.25C13 0.183696 12.9737 0.120107 12.9268 0.0732233C12.8799 0.0263392 12.8163 0 12.75 0C12.6837 0 12.6201 0.0263392 12.5732 0.0732233C12.5263 0.120107 12.5 0.183696 12.5 0.25V2.25C12.5 2.3163 12.5263 2.37989 12.5732 2.42678C12.6201 2.47366 12.6837 2.5 12.75 2.5Z" fill="black"/>
</svg>
