<svg width="21" height="16" viewBox="0 0 21 16" fill="none" xmlns="http://www.w3.org/2000/svg">
<path d="M19.5 0C18.673 0 18 0.673 18 1.5C18 1.944 18.198 2.3395 18.5055 2.6145L14.1055 9.63C13.915 9.54462 13.7087 9.50033 13.5 9.5C13.066 9.5 12.678 9.688 12.4035 9.9835L7.867 7.111C7.951 6.924 8 6.718 8 6.5C8 5.673 7.327 5 6.5 5C5.673 5 5 5.673 5 6.5C5 6.952 5.205 7.353 5.522 7.628L2.0745 13.1155C1.89256 13.0392 1.69727 13 1.5 13C0.673 13 0 13.673 0 14.5C0 15.327 0.673 16 1.5 16C2.327 16 3 15.327 3 14.5C3 14.056 2.8025 13.661 2.495 13.386L5.947 7.891C6.1185 7.96 6.3045 8 6.5 8C6.9295 8 7.3145 7.8165 7.588 7.5265L12.127 10.4005C12.0436 10.5894 12.0004 10.7935 12 11C12 11.827 12.673 12.5 13.5 12.5C14.327 12.5 15 11.827 15 11C15 10.5685 14.8145 10.182 14.5215 9.908L18.9265 2.885C19.1035 2.9585 19.297 3 19.5 3C20.327 3 21 2.327 21 1.5C21 0.673 20.327 0 19.5 0ZM2.5 14.5C2.5 15.0515 2.0515 15.5 1.5 15.5C0.9485 15.5 0.5 15.0515 0.5 14.5C0.5 13.9485 0.9485 13.5 1.5 13.5C2.0515 13.5 2.5 13.9485 2.5 14.5ZM6.5 7.5C5.9485 7.5 5.5 7.0515 5.5 6.5C5.5 5.9485 5.9485 5.5 6.5 5.5C7.0515 5.5 7.5 5.9485 7.5 6.5C7.5 7.0515 7.0515 7.5 6.5 7.5ZM13.5 12C12.9485 12 12.5 11.5515 12.5 11C12.5 10.4485 12.9485 10 13.5 10C14.0515 10 14.5 10.4485 14.5 11C14.5 11.5515 14.0515 12 13.5 12ZM19.5 2.5C18.9485 2.5 18.5 2.0515 18.5 1.5C18.5 0.9485 18.9485 0.5 19.5 0.5C20.0515 0.5 20.5 0.9485 20.5 1.5C20.5 2.0515 20.0515 2.5 19.5 2.5Z" fill="black"/>
</svg>
