<svg width="14" height="20" viewBox="0 0 14 20" fill="none" xmlns="http://www.w3.org/2000/svg">
<path d="M2.50004 0C1.12921 0 4.09906e-05 1.12917 4.09906e-05 2.5V17.5C4.09906e-05 18.8708 1.12921 20 2.50004 20H10.8334C12.2042 20 13.3334 18.8708 13.3334 17.5V2.5C13.3334 1.12917 12.2042 0 10.8334 0H2.50004ZM2.50597 0.5H10.8334C12.3255 0.5 12.8334 2.0375 12.8334 2.5V17.5C12.8334 17.9625 12.3255 19.5 10.8334 19.5H2.50004C1.00792 19.5 0.505975 17.9625 0.505975 17.5V2.5C0.505975 2.0375 0.833374 0.5 2.50597 0.5ZM6.66671 15.8333C6.44569 15.8333 6.23373 15.9211 6.07745 16.0774C5.92117 16.2337 5.83337 16.4457 5.83337 16.6667C5.83337 16.8877 5.92117 17.0996 6.07745 17.2559C6.23373 17.4122 6.44569 17.5 6.66671 17.5C6.88772 17.5 7.09968 17.4122 7.25596 17.2559C7.41224 17.0996 7.50004 16.8877 7.50004 16.6667C7.50004 16.4457 7.41224 16.2337 7.25596 16.0774C7.09968 15.9211 6.88772 15.8333 6.66671 15.8333Z" fill="black"/>
</svg>
