<svg width="13" height="10" viewBox="0 0 13 10" fill="none" xmlns="http://www.w3.org/2000/svg">
<path d="M3.8669 8.10536L1.26039 5.32204C1.19223 5.24837 1.11106 5.18988 1.02157 5.14996C0.932085 5.11004 0.836069 5.08949 0.739088 5.08949C0.642107 5.08949 0.54609 5.11004 0.456604 5.14996C0.367119 5.18988 0.285944 5.24837 0.217785 5.32204C0.148794 5.39483 0.0940193 5.48151 0.0566348 5.57706C0.0192502 5.67262 0 5.77515 0 5.87871C0 5.98227 0.0192502 6.08479 0.0566348 6.18035C0.0940193 6.27591 0.148794 6.36259 0.217785 6.43537L3.33815 9.7674C3.62859 10.0775 4.09776 10.0775 4.38821 9.7674L12.2822 1.34588C12.3512 1.2731 12.406 1.18642 12.4434 1.09086C12.4808 0.995308 12.5 0.892779 12.5 0.78922C12.5 0.685661 12.4808 0.583132 12.4434 0.487576C12.406 0.39202 12.3512 0.305339 12.2822 0.232557C12.2141 0.158887 12.1329 0.100396 12.0434 0.0604761C11.9539 0.0205558 11.8579 0 11.7609 0C11.6639 0 11.5679 0.0205558 11.4784 0.0604761C11.3889 0.100396 11.3078 0.158887 11.2396 0.232557L3.8669 8.10536Z" fill="#041F3D" fill-opacity="0.8"/>
</svg>
